<?xml version="1.0" encoding="UTF-8"?>
<svg id="Layer_1" data-name="Layer 1" xmlns="http://www.w3.org/2000/svg" viewBox="0 0 1514.39 293.76">
  <defs>
    <style>
      .cls-1 {
        fill: #008cff;
      }

      .cls-2 {
        letter-spacing: .5em;
      }

      .cls-3 {
        stroke: #231f20;
        stroke-miterlimit: 10;
      }

      .cls-3, .cls-4, .cls-5 {
        fill: #fff;
      }

      .cls-6 {
        letter-spacing: .52em;
      }

      .cls-7 {
        fill: #c1c1c1;
      }

      .cls-5 {
        font-family: ROGFonts-Regular, 'ROG Fonts';
        font-size: 72px;
      }
    </style>
  </defs>
  <path class="cls-4" d="M560.86,33.2h156.1c27.68,0,47.15,27.24,38.18,53.43-8.4,24.54-16.81,49.09-25.21,73.63-5.84,5.35-12.24,10.87-19.24,16.44-7.01,5.58-13.85,10.59-20.39,15.08h-159.85c-28.41,0-47.92-28.57-37.59-55.04l30.42-77.87c5.37-4.2,11.17-8.49,17.4-12.78,6.95-4.78,13.71-9.06,20.19-12.89Z"/>
  <path class="cls-4" d="M268.88,191.78c12.16-33.89,24.32-67.78,36.48-101.67,36.32,33.89,72.64,67.78,108.96,101.67h54.97l36.97-126.47-69.56,40.37-6.32,21.4-101.18-93.88-88.53,57.4-37.46,101.18"/>
  <path d="M581.73,74.55h103.19c6.65,0,11.41,6.42,9.49,12.79-5.29,17.47-10.59,34.94-15.88,52.41-1.27,4.18-5.12,7.04-9.49,7.04h-102.13c-6.57,0-11.33-6.28-9.54-12.61,4.94-17.47,9.88-34.94,14.82-52.41,1.21-4.27,5.1-7.21,9.54-7.21Z"/>
  <path class="cls-4" d="M705.58,191.78l81.1-45h114.05c10.05,0,18.92-6.55,21.88-16.14,4.17-13.5,8.35-27.01,12.52-40.51,2.39-7.74-3.39-15.58-11.49-15.58h-128.8c-14.19-14.51-28.38-29.02-42.56-43.54,70.92.61,141.83,1.22,212.75,1.82,21.47.18,36.89,20.73,31.08,41.4l-17.96,63.78c-8.95,31.8-37.95,53.76-70.98,53.76h-201.58Z"/>
  <path class="cls-1" d="M773.19,72.36c-7.3,24.81-14.59,49.62-21.89,74.42,9.31-5.51,18.63-11.03,27.94-16.54,7.55-.16,15.1-.32,22.65-.49,4.05-13.62,8.11-27.24,12.16-40.86h-24.32"/>
  <path class="cls-3" d="M1005.39,33.41l6.86,8.5c2.62,3.25,3.58,7.53,2.58,11.58l-21.92,89.31c-6.11,24.92,12.75,48.97,38.41,48.97h370.74c33.49,0,62.4-23.49,69.25-56.27.07-.34.14-.68.21-1.02,4.86-23.26-12.89-45.1-36.65-45.1h-124.9c-3.55,0-6.36-3.01-6.11-6.56l.12-1.74c.21-2.99,2.72-5.29,5.71-5.26,55.92.63,111.85,1.26,167.77,1.89.04,0,.08-.02.11-.05,12.09-15.48,24.18-30.96,36.28-46.43.07-.09,0-.21-.1-.21h-203.51c-29.07,0-54.3,20.05-60.85,48.37l-2.13,9.2c-4.87,21.03,11.14,41.11,32.73,41.05,40.13-.12,80.27-.23,120.4-.35,3.36,0,6.06,2.75,5.97,6.11h0c-.13,4.85-4.08,8.72-8.93,8.73-112.85.4-225.69.79-338.54,1.19-.08,0-.15-.08-.13-.16,8.57-37.27,17.14-74.53,25.71-111.8.02-.08-.04-.16-.13-.16h-78.85c-.11,0-.17.13-.1.21Z"/>
  <polygon class="cls-4" points="1190.07 31.01 1164.53 130.36 1223.63 130.36 1249.17 31.01 1190.07 31.01"/>
  <polygon class="cls-1" points="1240.41 121.24 1238.22 130.36 1249.17 130.36 1240.41 121.24"/>
  <polygon class="cls-1" points="0 202.11 307.91 0 348.77 0 43.78 202.11 0 202.11"/>
  <polygon class="cls-1" points="84.64 202.11 209.41 120.39 198.47 156.15 130.61 202.11 84.64 202.11"/>
  <polygon class="cls-1" points="161.98 202.11 183.87 183.14 183.87 202.11 161.98 202.11"/>
  <polygon class="cls-1" points="313.75 120.39 306.45 142.28 326.16 131.34 313.75 120.39"/>
  <path class="cls-1" d="M348.77,26.54c14.11-8.85,28.21-17.69,42.32-26.54h45.97c-22.52,15.29-45.04,30.58-67.55,45.88-6.91-6.45-13.82-12.89-20.73-19.34Z"/>
  <path class="cls-1" d="M444.85.06c9.74,1.06,19.48,2.11,29.23,3.17-30.12,19.66-60.24,39.31-90.36,58.97,5.69,4.86,11.38,9.72,17.07,14.58,36.58-22.87,73.16-45.74,109.74-68.62,9.62.31,19.23.62,28.85.94-42.14,26.94-84.27,53.88-126.41,80.82,4.93,4.44,9.86,8.88,14.79,13.33,48.87-29.98,97.74-59.97,146.61-89.95,176.21.79,352.42,1.57,528.63,2.36V5.35C924.72,2.15,746.45.39,568.19.06c-41.11-.08-82.22-.08-123.34,0Z"/>
  <path class="cls-7" d="M254.92,191.78c15.32-41.21,30.65-82.41,45.97-123.62,77.12,80.93,114.93,122.14,113.43,123.62-1.41,1.39-37.73-32.5-108.96-101.67-12.16,33.89-24.32,67.78-36.48,101.67h-13.95Z"/>
  <path class="cls-7" d="M469.29,191.78c6.16-38.58,12.32-77.16,18.48-115.74,6.16-3.58,12.32-7.15,18.48-10.73l-36.97,126.47Z"/>
  <path class="cls-7" d="M769.56,156.28h137.8c12.46,0,23.42-8.24,26.88-20.21l12.84-44.48c3.81-13.2-6.03-26.39-19.77-26.5l-142.83-1.14,10.37,10.6h129.42c7.42,0,12.76,7.13,10.67,14.24-4.09,13.97-8.18,27.93-12.27,41.9-2.79,9.54-11.54,16.09-21.48,16.09h-114.49s-17.12,9.5-17.12,9.5Z"/>
  <path class="cls-7" d="M1034.69,33.41c-6.17,30.8-12.33,61.59-18.5,92.39-.43.89-7.62,16.37,1.46,30.47,6.93,10.76,18.39,13.05,20.43,13.43,121.33,7.36,242.65,14.71,363.98,22.07h-368.79c-26.85,0-46.56-25.22-40.08-51.27l21.64-87.01c-3.15-6.69-6.29-13.39-9.44-20.08"/>
  <text class="cls-5" transform="translate(914.5 264.5)"><tspan class="cls-2" x="0" y="0">RACI</tspan><tspan class="cls-6" x="357.12" y="0">N</tspan><tspan class="cls-2" x="456.62" y="0">G</tspan></text>
</svg>