<?xml version="1.0" encoding="UTF-8"?>
<svg id="Layer_1" data-name="Layer 1" xmlns="http://www.w3.org/2000/svg" viewBox="0 0 946.6 567.4">
  <defs>
    <style>
      .cls-1 {
        fill: #008cff;
      }

      .cls-2 {
        fill: #fff;
      }

      .cls-3 {
        fill: #c1c1c1;
      }
    </style>
  </defs>
  <path class="cls-2" d="M106.56,106.56c-.59,97.09-1.18,194.17-1.78,291.26,24.86,18.35,49.73,36.7,74.59,55.06,76.56-42.03,153.11-84.06,229.67-126.09,26.41,21.36,52.82,42.72,79.22,64.08l-313.9,176.54L.32,443.08C.21,295.38.11,147.69,0,0c82.88.59,165.76,1.18,248.64,1.78,153.69,137.21,307.38,274.42,461.07,411.63,48.88-33.78,97.76-67.56,146.64-101.34v-158.55c-33.09-21.02-66.19-42.03-99.28-63.05-61.85.6-124.76.62-188.7,0-61.37-.6-121.78-1.77-181.2-3.45-33.15-28.42-66.3-56.83-99.46-85.25h500.83c52.69,28.42,105.38,56.83,158.06,85.25v293.04c-80.51,58.02-161.02,116.03-241.53,174.05C541.76,404.73,378.46,255.36,215.16,105.99c-36.2.19-72.4.38-108.6.57Z"/>
  <path class="cls-3" d="M409.04,326.78l-229.67,126.09-74.59-55.06,1.78-291.26,108.6-.57,489.91,448.12,241.53-174.05-242,122.49L229.71,77.7H78.66v327.6c31.2,24.9,62.4,49.8,93.6,74.69,83.77-47.15,167.55-94.31,251.32-141.46"/>
  <path class="cls-3" d="M358.61,63.15h418.53l113.74,69.25v183.71l-181.13,97.31,146.61-101.14v-158.23l-99.26-62.92c-61.83.6-124.73.62-188.65,0-61.36-.6-121.75-1.76-181.16-3.45"/>
  <path class="cls-1" d="M188.68,1.35c343.19,279.68,516.85,417.03,521.02,412.06,4.02-4.79-149.67-142.01-461.07-411.63"/>
</svg>